<?xml version="1.0" encoding="UTF-8" standalone="no"?>
<svg width="336px" height="56px" viewBox="0 0 336 56" version="1.1" xmlns="http://www.w3.org/2000/svg" xmlns:xlink="http://www.w3.org/1999/xlink" xmlns:sketch="http://www.bohemiancoding.com/sketch/ns">
    <!-- Generator: Sketch 3.4.4 (17249) - http://www.bohemiancoding.com/sketch -->
    <title>icon-sn</title>
    <desc>Created with Sketch.</desc>
    <defs></defs>
    <g id="share" stroke="none" stroke-width="1" fill="none" fill-rule="evenodd" sketch:type="MSPage">
        <g id="icon-sn" sketch:type="MSArtboardGroup">
                        
            <path d="M67.5334911,18.4269611 C67.20983,18.9403546 66.5178649,19.1635692 66.0044714,18.9291939 C65.5022387,18.6948186 65.3459885,18.1033 65.6696496,17.6010673 C65.98215,17.1099953 66.6517936,16.8867807 67.1540264,17.0988346 C67.6785806,17.3220491 67.8459915,17.9135677 67.5334911,18.4269611 L67.5334911,18.4269611 Z M68.5825995,17.0765131 C68.4709922,17.2774062 68.2142955,17.366692 68.0134024,17.2885669 C67.8125093,17.1992811 67.7567057,16.9872273 67.868313,16.7863342 C67.9799202,16.5966018 68.2254562,16.507316 68.4263493,16.5742804 C68.6272424,16.6524055 68.6942068,16.87562 68.5825995,17.0765131 L68.5825995,17.0765131 Z M70.5245661,18.270711 C71.1942098,16.7751735 70.3683159,15.2349931 68.727689,14.8108854 C67.1540264,14.4090992 65.3794707,15.1903501 64.6875056,16.5742804 C63.9955405,17.9916928 64.6651841,19.5653554 66.2611682,20.0787488 C67.9129559,20.6144638 69.8549225,19.7885699 70.5245661,18.270711 L70.5245661,18.270711 Z M74.0067131,16.4849945 C74.218767,18.6613364 71.718764,20.6814281 68.4040279,21.0162499 C65.0892918,21.339911 62.2321455,19.8443736 62.0200917,17.6680317 C61.8080379,15.4916898 64.3080408,13.4715981 67.6227769,13.1367763 C70.937513,12.8131152 73.7946593,14.3086527 74.0067131,16.4849945 L74.0067131,16.4849945 Z M77.4442172,16.5296375 C77.4442172,15.0117785 76.1718943,14.1524025 75.0223393,13.7952592 C74.7433211,13.7059734 74.5535888,13.6501697 74.6986782,13.2818657 C75.0111786,12.4782933 75.0446608,11.7863282 74.6986782,11.2952562 C74.051356,10.3689158 72.2768003,10.4135587 70.2455479,11.2729348 C70.2455479,11.261774 69.6093865,11.551953 69.7656366,11.0385595 C70.078137,10.034094 70.0334941,9.1858787 69.5424221,8.70596742 C68.4375101,7.60105538 65.5022387,8.7394496 62.9799143,11.261774 C61.0937513,13.147937 60,15.1457072 60,16.87562 C60,20.1903561 64.2410765,22.1992871 68.3928671,22.1992871 C73.8281415,22.1992871 77.4442172,19.0408012 77.4442172,16.5296375 L77.4442172,16.5296375 Z M76.6183234,9.56534344 C75.9821619,8.85105687 75.0335001,8.58319941 74.1629633,8.77293178 C73.80582,8.85105687 73.5826055,9.19703943 73.6607306,9.55418271 C73.7276949,9.911326 74.0848382,10.1345405 74.4419815,10.0564155 C74.8660892,9.96712963 75.323679,10.1010584 75.6361794,10.4470409 C75.9486797,10.7930235 76.0379655,11.261774 75.9040368,11.6858817 C75.7924295,12.0318642 75.9821619,12.4001682 76.3281445,12.5117755 C76.674127,12.6233828 77.042431,12.4336504 77.1540383,12.0876679 C77.4330565,11.2394526 77.2544849,10.2684693 76.6183234,9.56534344 L76.6183234,9.56534344 Z M78.6384151,7.74614484 C77.3214492,6.28408953 75.3906433,5.73721388 73.5937662,6.11667861 C73.1808193,6.20596444 72.9129618,6.60775063 73.0022476,7.02069755 C73.0915335,7.43364447 73.5044804,7.70150193 73.9174273,7.61221611 C75.1897503,7.34435865 76.5625197,7.73498412 77.5000209,8.77293178 C78.437522,9.79971872 78.683058,11.2171311 78.2812718,12.4559719 C78.1585038,12.8577581 78.3817183,13.2818657 78.7835045,13.4157945 C79.1852907,13.5497232 79.6093984,13.3265086 79.7433271,12.9247224 C80.3013635,11.1836489 79.9553809,9.19703943 78.6384151,7.74614484 L78.6384151,7.74614484 Z" id="weibo---FontAwesome" fill="#FFFFFF" sketch:type="MSShapeGroup"></path>

            <path d="M91.53125,13.0959821 C89.9642857,14.28125 89,15.7678571 89,17.7767857 C89,18.1484375 89.0904018,18.4497768 89.2310268,18.78125 C89.2912946,18.8013393 89.2611607,18.8816964 89.3415179,18.8816964 L89.3515625,18.8816964 C89.9341518,18.8214286 90.4564732,18.2689732 90.6774554,17.7566964 C90.6975446,17.7064732 90.7276786,17.5558036 90.7979911,17.5558036 L90.8482143,17.5859375 C90.9988839,18.3091518 91.9732143,20.0569196 92.6662946,20.2176339 L92.6863839,20.2477679 C92.6863839,20.2779018 92.6763393,20.2779018 92.6662946,20.2879464 C92.6160714,20.2979911 92.5758929,20.3080357 92.5256696,20.3080357 C92.1640625,20.328125 91.9330357,20.4988839 91.6216518,20.5591518 C91.2299107,20.9207589 91.109375,21.0814732 91.109375,21.6439732 C91.109375,22.9497768 94.0625,23 94.8258929,23 C95.6897321,23 97.1863839,22.8191964 97.7991071,22.1462054 C98.0602679,22.1763393 98.421875,22.1361607 98.6629464,22.2064732 C99.8180804,22.5479911 100.8125,22.8694196 102.037946,22.8694196 C102.962054,22.8694196 104.498884,22.7589286 105.071429,21.8950893 C105.151786,21.7845982 105.131696,21.6640625 105.18192,21.5535714 C105.011161,20.5993304 104.087054,20.6495536 103.514509,20.0970982 C104.167411,19.4743304 104.518973,18.6908482 104.840402,17.8571429 L104.890625,17.8169643 C104.90067,17.8169643 104.910714,17.8169643 104.920759,17.8270089 C105.061384,18.0881696 105.493304,19.0424107 105.885045,19.0424107 C106.447545,19.0424107 106.638393,17.8169643 106.638393,17.4654018 C106.638393,15.8783482 105.854911,14.4921875 104.991071,13.2165179 C104.981027,13.1964286 104.920759,13.1160714 104.920759,13.0959821 C104.920759,12.8549107 105.101562,12.5837054 105.101562,12.3125 C105.101562,11.7700893 104.840402,11.2477679 104.549107,10.8058036 L104.539062,10.7555804 C104.03683,8.39508929 103.504464,6.546875 101.143973,5.55245536 C100.320312,5.2109375 99.3560268,5 98.4720982,5 C97.3370536,5 96.2522321,5.17075893 95.2176339,5.66294643 C93.5401786,6.46651786 92.1037946,8.80691964 92.1037946,10.6651786 C91.9029018,10.8359375 91.7924107,11.3683036 91.8024554,11.6294643 C91.6316964,11.8404018 91.4508929,12.2924107 91.4508929,12.5736607 C91.4508929,12.7544643 91.4609375,12.9252232 91.53125,13.0959821 L91.53125,13.0959821 Z" id="qq---FontAwesome" fill="#FFFFFF" sketch:type="MSShapeGroup"></path>

            <path d="M260.880022,9.3057554 C260.880022,9.88848921 260.493303,10.2769784 259.902483,10.2769784 C259.322404,10.2769784 258.731584,9.88848921 258.731584,9.3057554 C258.731584,8.71223022 259.322404,8.32374101 259.902483,8.32374101 C260.493303,8.32374101 260.880022,8.71223022 260.880022,9.3057554 L260.880022,9.3057554 Z M268.861467,14.7769784 C268.861467,15.176259 268.474748,15.5647482 267.883928,15.5647482 C267.497209,15.5647482 267.11049,15.176259 267.11049,14.7769784 C267.11049,14.3884892 267.497209,14 267.883928,14 C268.474748,14 268.861467,14.3884892 268.861467,14.7769784 L268.861467,14.7769784 Z M266.326311,9.3057554 C266.326311,9.88848921 265.939592,10.2769784 265.359514,10.2769784 C264.768693,10.2769784 264.188615,9.88848921 264.188615,9.3057554 C264.188615,8.71223022 264.768693,8.32374101 265.359514,8.32374101 C265.939592,8.32374101 266.326311,8.71223022 266.326311,9.3057554 L266.326311,9.3057554 Z M273.1476,14.7769784 C273.1476,15.176259 272.750139,15.5647482 272.170061,15.5647482 C271.783342,15.5647482 271.396623,15.176259 271.396623,14.7769784 C271.396623,14.3884892 271.783342,14 272.170061,14 C272.750139,14 273.1476,14.3884892 273.1476,14.7769784 L273.1476,14.7769784 Z M270.290178,10.4928058 C269.624162,7.34172662 266.261858,5 262.437639,5 C258.151506,5 254.649553,7.92446043 254.649553,11.647482 C254.649553,13.794964 255.820451,15.5647482 257.764787,16.9352518 L256.99135,19.2877698 L259.709123,17.9172662 C260.686662,18.1115108 261.4601,18.3057554 262.437639,18.3057554 C262.684709,18.3057554 262.921037,18.294964 263.168108,18.2733813 C263.006975,17.7553957 262.921037,17.205036 262.921037,16.6330935 C262.921037,13.2230216 265.842912,10.4496403 269.538225,10.4496403 C269.796037,10.4496403 270.043108,10.4604317 270.290178,10.4928058 L270.290178,10.4928058 Z M276.649553,16.5467626 C276.649553,13.4172662 273.534318,10.8705036 270.032365,10.8705036 C266.326311,10.8705036 263.415178,13.4172662 263.415178,16.5467626 C263.415178,19.676259 266.326311,22.2230216 270.032365,22.2230216 C270.805803,22.2230216 271.589983,22.0179856 272.374162,21.823741 L274.511858,23 L273.921037,21.0467626 C275.489397,19.8705036 276.649553,18.3057554 276.649553,16.5467626 L276.649553,16.5467626 Z" id="weixin---FontAwesome" fill="#FFFFFF" sketch:type="MSShapeGroup"></path>
            
            <path d="M67.5334911,46.4269611 C67.20983,46.9403546 66.5178649,47.1635692 66.0044714,46.9291939 C65.5022387,46.6948186 65.3459885,46.1033 65.6696496,45.6010673 C65.98215,45.1099953 66.6517936,44.8867807 67.1540264,45.0988346 C67.6785806,45.3220491 67.8459915,45.9135677 67.5334911,46.4269611 L67.5334911,46.4269611 Z M68.5825995,45.0765131 C68.4709922,45.2774062 68.2142955,45.366692 68.0134024,45.2885669 C67.8125093,45.1992811 67.7567057,44.9872273 67.868313,44.7863342 C67.9799202,44.5966018 68.2254562,44.507316 68.4263493,44.5742804 C68.6272424,44.6524055 68.6942068,44.87562 68.5825995,45.0765131 L68.5825995,45.0765131 Z M70.5245661,46.270711 C71.1942098,44.7751735 70.3683159,43.2349931 68.727689,42.8108854 C67.1540264,42.4090992 65.3794707,43.1903501 64.6875056,44.5742804 C63.9955405,45.9916928 64.6651841,47.5653554 66.2611682,48.0787488 C67.9129559,48.6144638 69.8549225,47.7885699 70.5245661,46.270711 L70.5245661,46.270711 Z M74.0067131,44.4849945 C74.218767,46.6613364 71.718764,48.6814281 68.4040279,49.0162499 C65.0892918,49.339911 62.2321455,47.8443736 62.0200917,45.6680317 C61.8080379,43.4916898 64.3080408,41.4715981 67.6227769,41.1367763 C70.937513,40.8131152 73.7946593,42.3086527 74.0067131,44.4849945 L74.0067131,44.4849945 Z M77.4442172,44.5296375 C77.4442172,43.0117785 76.1718943,42.1524025 75.0223393,41.7952592 C74.7433211,41.7059734 74.5535888,41.6501697 74.6986782,41.2818657 C75.0111786,40.4782933 75.0446608,39.7863282 74.6986782,39.2952562 C74.051356,38.3689158 72.2768003,38.4135587 70.2455479,39.2729348 C70.2455479,39.261774 69.6093865,39.551953 69.7656366,39.0385595 C70.078137,38.034094 70.0334941,37.1858787 69.5424221,36.7059674 C68.4375101,35.6010554 65.5022387,36.7394496 62.9799143,39.261774 C61.0937513,41.147937 60,43.1457072 60,44.87562 C60,48.1903561 64.2410765,50.1992871 68.3928671,50.1992871 C73.8281415,50.1992871 77.4442172,47.0408012 77.4442172,44.5296375 L77.4442172,44.5296375 Z M76.6183234,37.5653434 C75.9821619,36.8510569 75.0335001,36.5831994 74.1629633,36.7729318 C73.80582,36.8510569 73.5826055,37.1970394 73.6607306,37.5541827 C73.7276949,37.911326 74.0848382,38.1345405 74.4419815,38.0564155 C74.8660892,37.9671296 75.323679,38.1010584 75.6361794,38.4470409 C75.9486797,38.7930235 76.0379655,39.261774 75.9040368,39.6858817 C75.7924295,40.0318642 75.9821619,40.4001682 76.3281445,40.5117755 C76.674127,40.6233828 77.042431,40.4336504 77.1540383,40.0876679 C77.4330565,39.2394526 77.2544849,38.2684693 76.6183234,37.5653434 L76.6183234,37.5653434 Z M78.6384151,35.7461448 C77.3214492,34.2840895 75.3906433,33.7372139 73.5937662,34.1166786 C73.1808193,34.2059644 72.9129618,34.6077506 73.0022476,35.0206975 C73.0915335,35.4336445 73.5044804,35.7015019 73.9174273,35.6122161 C75.1897503,35.3443586 76.5625197,35.7349841 77.5000209,36.7729318 C78.437522,37.7997187 78.683058,39.2171311 78.2812718,40.4559719 C78.1585038,40.8577581 78.3817183,41.2818657 78.7835045,41.4157945 C79.1852907,41.5497232 79.6093984,41.3265086 79.7433271,40.9247224 C80.3013635,39.1836489 79.9553809,37.1970394 78.6384151,35.7461448 L78.6384151,35.7461448 Z" id="weibo---FontAwesome" fill="#EC0117" sketch:type="MSShapeGroup"></path>

            <path d="M91.53125,41.0959821 C89.9642857,42.28125 89,43.7678571 89,45.7767857 C89,46.1484375 89.0904018,46.4497768 89.2310268,46.78125 C89.2912946,46.8013393 89.2611607,46.8816964 89.3415179,46.8816964 L89.3515625,46.8816964 C89.9341518,46.8214286 90.4564732,46.2689732 90.6774554,45.7566964 C90.6975446,45.7064732 90.7276786,45.5558036 90.7979911,45.5558036 L90.8482143,45.5859375 C90.9988839,46.3091518 91.9732143,48.0569196 92.6662946,48.2176339 L92.6863839,48.2477679 C92.6863839,48.2779018 92.6763393,48.2779018 92.6662946,48.2879464 C92.6160714,48.2979911 92.5758929,48.3080357 92.5256696,48.3080357 C92.1640625,48.328125 91.9330357,48.4988839 91.6216518,48.5591518 C91.2299107,48.9207589 91.109375,49.0814732 91.109375,49.6439732 C91.109375,50.9497768 94.0625,51 94.8258929,51 C95.6897321,51 97.1863839,50.8191964 97.7991071,50.1462054 C98.0602679,50.1763393 98.421875,50.1361607 98.6629464,50.2064732 C99.8180804,50.5479911 100.8125,50.8694196 102.037946,50.8694196 C102.962054,50.8694196 104.498884,50.7589286 105.071429,49.8950893 C105.151786,49.7845982 105.131696,49.6640625 105.18192,49.5535714 C105.011161,48.5993304 104.087054,48.6495536 103.514509,48.0970982 C104.167411,47.4743304 104.518973,46.6908482 104.840402,45.8571429 L104.890625,45.8169643 C104.90067,45.8169643 104.910714,45.8169643 104.920759,45.8270089 C105.061384,46.0881696 105.493304,47.0424107 105.885045,47.0424107 C106.447545,47.0424107 106.638393,45.8169643 106.638393,45.4654018 C106.638393,43.8783482 105.854911,42.4921875 104.991071,41.2165179 C104.981027,41.1964286 104.920759,41.1160714 104.920759,41.0959821 C104.920759,40.8549107 105.101562,40.5837054 105.101562,40.3125 C105.101562,39.7700893 104.840402,39.2477679 104.549107,38.8058036 L104.539062,38.7555804 C104.03683,36.3950893 103.504464,34.546875 101.143973,33.5524554 C100.320312,33.2109375 99.3560268,33 98.4720982,33 C97.3370536,33 96.2522321,33.1707589 95.2176339,33.6629464 C93.5401786,34.4665179 92.1037946,36.8069196 92.1037946,38.6651786 C91.9029018,38.8359375 91.7924107,39.3683036 91.8024554,39.6294643 C91.6316964,39.8404018 91.4508929,40.2924107 91.4508929,40.5736607 C91.4508929,40.7544643 91.4609375,40.9252232 91.53125,41.0959821 L91.53125,41.0959821 Z" id="qq---FontAwesome" fill="#0098E6" sketch:type="MSShapeGroup"></path>

            <path d="M261.230469,37.3057554 C261.230469,37.8884892 260.84375,38.2769784 260.25293,38.2769784 C259.672852,38.2769784 259.082031,37.8884892 259.082031,37.3057554 C259.082031,36.7122302 259.672852,36.323741 260.25293,36.323741 C260.84375,36.323741 261.230469,36.7122302 261.230469,37.3057554 L261.230469,37.3057554 Z M269.211914,42.7769784 C269.211914,43.176259 268.825195,43.5647482 268.234375,43.5647482 C267.847656,43.5647482 267.460938,43.176259 267.460938,42.7769784 C267.460938,42.3884892 267.847656,42 268.234375,42 C268.825195,42 269.211914,42.3884892 269.211914,42.7769784 L269.211914,42.7769784 Z M266.676758,37.3057554 C266.676758,37.8884892 266.290039,38.2769784 265.709961,38.2769784 C265.119141,38.2769784 264.539062,37.8884892 264.539062,37.3057554 C264.539062,36.7122302 265.119141,36.323741 265.709961,36.323741 C266.290039,36.323741 266.676758,36.7122302 266.676758,37.3057554 L266.676758,37.3057554 Z M273.498047,42.7769784 C273.498047,43.176259 273.100586,43.5647482 272.520508,43.5647482 C272.133789,43.5647482 271.74707,43.176259 271.74707,42.7769784 C271.74707,42.3884892 272.133789,42 272.520508,42 C273.100586,42 273.498047,42.3884892 273.498047,42.7769784 L273.498047,42.7769784 Z M270.640625,38.4928058 C269.974609,35.3417266 266.612305,33 262.788086,33 C258.501953,33 255,35.9244604 255,39.647482 C255,41.794964 256.170898,43.5647482 258.115234,44.9352518 L257.341797,47.2877698 L260.05957,45.9172662 C261.037109,46.1115108 261.810547,46.3057554 262.788086,46.3057554 C263.035156,46.3057554 263.271484,46.294964 263.518555,46.2733813 C263.357422,45.7553957 263.271484,45.205036 263.271484,44.6330935 C263.271484,41.2230216 266.193359,38.4496403 269.888672,38.4496403 C270.146484,38.4496403 270.393555,38.4604317 270.640625,38.4928058 L270.640625,38.4928058 Z M277,44.5467626 C277,41.4172662 273.884766,38.8705036 270.382812,38.8705036 C266.676758,38.8705036 263.765625,41.4172662 263.765625,44.5467626 C263.765625,47.676259 266.676758,50.2230216 270.382812,50.2230216 C271.15625,50.2230216 271.94043,50.0179856 272.724609,49.823741 L274.862305,51 L274.271484,49.0467626 C275.839844,47.8705036 277,46.3057554 277,44.5467626 L277,44.5467626 Z" id="weixin---FontAwesome" fill="#00B500" sketch:type="MSShapeGroup"></path>
        </g>
    </g>
</svg>